<?xml version="1.0" encoding="iso-8859-1"?>
<!-- Generator: Adobe Illustrator 19.0.0, SVG Export Plug-In . SVG Version: 6.00 Build 0)  -->
<svg version="1.1" id="Capa_1" xmlns="http://www.w3.org/2000/svg" xmlns:xlink="http://www.w3.org/1999/xlink" x="0px" y="0px"
	 viewBox="0 0 512.025 512.025" style="enable-background:new 0 0 512.025 512.025;" xml:space="preserve">
<g>
	<g>
		<path d="M337.256,267.699c-8.992-1.312-16.832,4.864-18.08,13.6c-4.384,31.2-31.552,54.72-63.2,54.72c-35.296,0-64-28.704-64-64
			c0-31.648,23.52-58.816,54.72-63.2c8.736-1.248,14.848-9.344,13.6-18.08c-1.216-8.736-9.152-15.008-18.08-13.6
			c-46.88,6.592-82.24,47.392-82.24,94.88c0,52.928,43.072,96,96,96c47.488,0,88.288-35.36,94.88-82.24
			C352.104,277.043,345.992,268.947,337.256,267.699z" fill="#3398DC"/>
	</g>
</g>
<g>
	<g>
		<path d="M507.304,468.723l-91.136-91.136c20.064-30.304,31.808-66.56,31.808-105.568c0-26.176-5.376-52.096-16-76.992
			c-3.456-8.128-12.896-11.936-20.992-8.448c-8.128,3.456-11.904,12.864-8.448,20.992c8.928,20.928,13.44,42.592,13.44,64.448
			c0,88.224-71.776,160-160,160s-160-71.776-160-160s71.776-160,160-160c21.856,0,43.52,4.512,64.448,13.44
			c8.128,3.456,17.536-0.288,20.992-8.448c3.456-8.128-0.32-17.536-8.448-20.992c-24.896-10.624-50.816-16-76.992-16
			c-105.888,0-192,86.112-192,192c0,39.008,11.744,75.264,31.808,105.568L4.68,468.691c-6.24,6.24-6.24,16.384,0,22.624
			c3.104,3.136,7.2,4.704,11.296,4.704s8.192-1.568,11.328-4.672l88.512-88.512c35.072,37.536,84.832,61.184,140.16,61.184
			s105.088-23.648,140.16-61.216l88.512,88.512c3.136,3.136,7.232,4.704,11.328,4.704s8.192-1.568,11.328-4.672
			C513.544,485.107,513.544,474.963,507.304,468.723z" fill="#3398DC"/>
	</g>
</g>
<g>
	<g>
		<path d="M511.592,73.619c-1.28-5.408-5.28-9.76-10.528-11.488l-26.336-8.8l-8.832-26.368c-1.76-5.248-6.08-9.248-11.488-10.528
			c-5.408-1.28-11.072,0.352-14.976,4.256l-56.576,56.576c-4.288,4.288-5.792,10.624-3.872,16.384l8.16,24.576L244.648,260.691
			c-6.24,6.272-6.24,16.384,0,22.656c3.136,3.104,7.232,4.672,11.328,4.672s8.192-1.568,11.328-4.672L409.8,140.851l24.576,8.16
			c1.664,0.576,3.36,0.832,5.056,0.832c4.16,0,8.256-1.632,11.328-4.672l56.576-56.576
			C511.272,84.659,512.872,78.995,511.592,73.619z M435.08,115.539l-16.96-5.664l-5.664-16.96l31.264-31.296l3.136,9.376
			c1.568,4.768,5.344,8.544,10.112,10.112l9.376,3.136L435.08,115.539z" fill="#3398DC"/>
	</g>
</g>
<g>
</g>
<g>
</g>
<g>
</g>
<g>
</g>
<g>
</g>
<g>
</g>
<g>
</g>
<g>
</g>
<g>
</g>
<g>
</g>
<g>
</g>
<g>
</g>
<g>
</g>
<g>
</g>
<g>
</g>
</svg>
